<svg xmlns="http://www.w3.org/2000/svg" width="94" height="94" viewBox="0 0 94 94">
  <g id="Group_33" data-name="Group 33" transform="translate(-77 -2373)">
    <g id="Group_23" data-name="Group 23">
      <circle id="Ellipse_5" data-name="Ellipse 5" cx="2" cy="2" r="2" transform="translate(77 2373)" fill="#ff9c00"/>
      <circle id="Ellipse_6" data-name="Ellipse 6" cx="2" cy="2" r="2" transform="translate(137 2373)" fill="#ff9c00"/>
      <circle id="Ellipse_7" data-name="Ellipse 7" cx="2" cy="2" r="2" transform="translate(127 2373)" fill="#ff9c00"/>
      <circle id="Ellipse_8" data-name="Ellipse 8" cx="2" cy="2" r="2" transform="translate(117 2373)" fill="#ff9c00"/>
      <circle id="Ellipse_9" data-name="Ellipse 9" cx="2" cy="2" r="2" transform="translate(107 2373)" fill="#ff9c00"/>
      <circle id="Ellipse_10" data-name="Ellipse 10" cx="2" cy="2" r="2" transform="translate(97 2373)" fill="#ff9c00"/>
      <circle id="Ellipse_11" data-name="Ellipse 11" cx="2" cy="2" r="2" transform="translate(87 2373)" fill="#ff9c00"/>
      <circle id="Ellipse_12" data-name="Ellipse 12" cx="2" cy="2" r="2" transform="translate(147 2373)" fill="#ff9c00"/>
      <circle id="Ellipse_13" data-name="Ellipse 13" cx="2" cy="2" r="2" transform="translate(157 2373)" fill="#ff9c00"/>
      <circle id="Ellipse_14" data-name="Ellipse 14" cx="2" cy="2" r="2" transform="translate(167 2373)" fill="#ff9c00"/>
    </g>
    <g id="Group_24" data-name="Group 24" transform="translate(0 10)">
      <circle id="Ellipse_5-2" data-name="Ellipse 5" cx="2" cy="2" r="2" transform="translate(77 2373)" fill="#ff9c00"/>
      <circle id="Ellipse_6-2" data-name="Ellipse 6" cx="2" cy="2" r="2" transform="translate(137 2373)" fill="#ff9c00"/>
      <circle id="Ellipse_7-2" data-name="Ellipse 7" cx="2" cy="2" r="2" transform="translate(127 2373)" fill="#ff9c00"/>
      <circle id="Ellipse_8-2" data-name="Ellipse 8" cx="2" cy="2" r="2" transform="translate(117 2373)" fill="#ff9c00"/>
      <circle id="Ellipse_9-2" data-name="Ellipse 9" cx="2" cy="2" r="2" transform="translate(107 2373)" fill="#ff9c00"/>
      <circle id="Ellipse_10-2" data-name="Ellipse 10" cx="2" cy="2" r="2" transform="translate(97 2373)" fill="#ff9c00"/>
      <circle id="Ellipse_11-2" data-name="Ellipse 11" cx="2" cy="2" r="2" transform="translate(87 2373)" fill="#ff9c00"/>
      <circle id="Ellipse_12-2" data-name="Ellipse 12" cx="2" cy="2" r="2" transform="translate(147 2373)" fill="#ff9c00"/>
      <circle id="Ellipse_13-2" data-name="Ellipse 13" cx="2" cy="2" r="2" transform="translate(157 2373)" fill="#ff9c00"/>
      <circle id="Ellipse_14-2" data-name="Ellipse 14" cx="2" cy="2" r="2" transform="translate(167 2373)" fill="#ff9c00"/>
    </g>
    <g id="Group_25" data-name="Group 25" transform="translate(0 20)">
      <circle id="Ellipse_5-3" data-name="Ellipse 5" cx="2" cy="2" r="2" transform="translate(77 2373)" fill="#ff9c00"/>
      <circle id="Ellipse_6-3" data-name="Ellipse 6" cx="2" cy="2" r="2" transform="translate(137 2373)" fill="#ff9c00"/>
      <circle id="Ellipse_7-3" data-name="Ellipse 7" cx="2" cy="2" r="2" transform="translate(127 2373)" fill="#ff9c00"/>
      <circle id="Ellipse_8-3" data-name="Ellipse 8" cx="2" cy="2" r="2" transform="translate(117 2373)" fill="#ff9c00"/>
      <circle id="Ellipse_9-3" data-name="Ellipse 9" cx="2" cy="2" r="2" transform="translate(107 2373)" fill="#ff9c00"/>
      <circle id="Ellipse_10-3" data-name="Ellipse 10" cx="2" cy="2" r="2" transform="translate(97 2373)" fill="#ff9c00"/>
      <circle id="Ellipse_11-3" data-name="Ellipse 11" cx="2" cy="2" r="2" transform="translate(87 2373)" fill="#ff9c00"/>
      <circle id="Ellipse_12-3" data-name="Ellipse 12" cx="2" cy="2" r="2" transform="translate(147 2373)" fill="#ff9c00"/>
      <circle id="Ellipse_13-3" data-name="Ellipse 13" cx="2" cy="2" r="2" transform="translate(157 2373)" fill="#ff9c00"/>
      <circle id="Ellipse_14-3" data-name="Ellipse 14" cx="2" cy="2" r="2" transform="translate(167 2373)" fill="#ff9c00"/>
    </g>
    <g id="Group_26" data-name="Group 26" transform="translate(0 30)">
      <circle id="Ellipse_5-4" data-name="Ellipse 5" cx="2" cy="2" r="2" transform="translate(77 2373)" fill="#ff9c00"/>
      <circle id="Ellipse_6-4" data-name="Ellipse 6" cx="2" cy="2" r="2" transform="translate(137 2373)" fill="#ff9c00"/>
      <circle id="Ellipse_7-4" data-name="Ellipse 7" cx="2" cy="2" r="2" transform="translate(127 2373)" fill="#ff9c00"/>
      <circle id="Ellipse_8-4" data-name="Ellipse 8" cx="2" cy="2" r="2" transform="translate(117 2373)" fill="#ff9c00"/>
      <circle id="Ellipse_9-4" data-name="Ellipse 9" cx="2" cy="2" r="2" transform="translate(107 2373)" fill="#ff9c00"/>
      <circle id="Ellipse_10-4" data-name="Ellipse 10" cx="2" cy="2" r="2" transform="translate(97 2373)" fill="#ff9c00"/>
      <circle id="Ellipse_11-4" data-name="Ellipse 11" cx="2" cy="2" r="2" transform="translate(87 2373)" fill="#ff9c00"/>
      <circle id="Ellipse_12-4" data-name="Ellipse 12" cx="2" cy="2" r="2" transform="translate(147 2373)" fill="#ff9c00"/>
      <circle id="Ellipse_13-4" data-name="Ellipse 13" cx="2" cy="2" r="2" transform="translate(157 2373)" fill="#ff9c00"/>
      <circle id="Ellipse_14-4" data-name="Ellipse 14" cx="2" cy="2" r="2" transform="translate(167 2373)" fill="#ff9c00"/>
    </g>
    <g id="Group_27" data-name="Group 27" transform="translate(0 40)">
      <circle id="Ellipse_5-5" data-name="Ellipse 5" cx="2" cy="2" r="2" transform="translate(77 2373)" fill="#ff9c00"/>
      <circle id="Ellipse_6-5" data-name="Ellipse 6" cx="2" cy="2" r="2" transform="translate(137 2373)" fill="#ff9c00"/>
      <circle id="Ellipse_7-5" data-name="Ellipse 7" cx="2" cy="2" r="2" transform="translate(127 2373)" fill="#ff9c00"/>
      <circle id="Ellipse_8-5" data-name="Ellipse 8" cx="2" cy="2" r="2" transform="translate(117 2373)" fill="#ff9c00"/>
      <circle id="Ellipse_9-5" data-name="Ellipse 9" cx="2" cy="2" r="2" transform="translate(107 2373)" fill="#ff9c00"/>
      <circle id="Ellipse_10-5" data-name="Ellipse 10" cx="2" cy="2" r="2" transform="translate(97 2373)" fill="#ff9c00"/>
      <circle id="Ellipse_11-5" data-name="Ellipse 11" cx="2" cy="2" r="2" transform="translate(87 2373)" fill="#ff9c00"/>
      <circle id="Ellipse_12-5" data-name="Ellipse 12" cx="2" cy="2" r="2" transform="translate(147 2373)" fill="#ff9c00"/>
      <circle id="Ellipse_13-5" data-name="Ellipse 13" cx="2" cy="2" r="2" transform="translate(157 2373)" fill="#ff9c00"/>
      <circle id="Ellipse_14-5" data-name="Ellipse 14" cx="2" cy="2" r="2" transform="translate(167 2373)" fill="#ff9c00"/>
    </g>
    <g id="Group_28" data-name="Group 28" transform="translate(0 50)">
      <circle id="Ellipse_5-6" data-name="Ellipse 5" cx="2" cy="2" r="2" transform="translate(77 2373)" fill="#ff9c00"/>
      <circle id="Ellipse_6-6" data-name="Ellipse 6" cx="2" cy="2" r="2" transform="translate(137 2373)" fill="#ff9c00"/>
      <circle id="Ellipse_7-6" data-name="Ellipse 7" cx="2" cy="2" r="2" transform="translate(127 2373)" fill="#ff9c00"/>
      <circle id="Ellipse_8-6" data-name="Ellipse 8" cx="2" cy="2" r="2" transform="translate(117 2373)" fill="#ff9c00"/>
      <circle id="Ellipse_9-6" data-name="Ellipse 9" cx="2" cy="2" r="2" transform="translate(107 2373)" fill="#ff9c00"/>
      <circle id="Ellipse_10-6" data-name="Ellipse 10" cx="2" cy="2" r="2" transform="translate(97 2373)" fill="#ff9c00"/>
      <circle id="Ellipse_11-6" data-name="Ellipse 11" cx="2" cy="2" r="2" transform="translate(87 2373)" fill="#ff9c00"/>
      <circle id="Ellipse_12-6" data-name="Ellipse 12" cx="2" cy="2" r="2" transform="translate(147 2373)" fill="#ff9c00"/>
      <circle id="Ellipse_13-6" data-name="Ellipse 13" cx="2" cy="2" r="2" transform="translate(157 2373)" fill="#ff9c00"/>
      <circle id="Ellipse_14-6" data-name="Ellipse 14" cx="2" cy="2" r="2" transform="translate(167 2373)" fill="#ff9c00"/>
    </g>
    <g id="Group_29" data-name="Group 29" transform="translate(0 60)">
      <circle id="Ellipse_5-7" data-name="Ellipse 5" cx="2" cy="2" r="2" transform="translate(77 2373)" fill="#ff9c00"/>
      <circle id="Ellipse_6-7" data-name="Ellipse 6" cx="2" cy="2" r="2" transform="translate(137 2373)" fill="#ff9c00"/>
      <circle id="Ellipse_7-7" data-name="Ellipse 7" cx="2" cy="2" r="2" transform="translate(127 2373)" fill="#ff9c00"/>
      <circle id="Ellipse_8-7" data-name="Ellipse 8" cx="2" cy="2" r="2" transform="translate(117 2373)" fill="#ff9c00"/>
      <circle id="Ellipse_9-7" data-name="Ellipse 9" cx="2" cy="2" r="2" transform="translate(107 2373)" fill="#ff9c00"/>
      <circle id="Ellipse_10-7" data-name="Ellipse 10" cx="2" cy="2" r="2" transform="translate(97 2373)" fill="#ff9c00"/>
      <circle id="Ellipse_11-7" data-name="Ellipse 11" cx="2" cy="2" r="2" transform="translate(87 2373)" fill="#ff9c00"/>
      <circle id="Ellipse_12-7" data-name="Ellipse 12" cx="2" cy="2" r="2" transform="translate(147 2373)" fill="#ff9c00"/>
      <circle id="Ellipse_13-7" data-name="Ellipse 13" cx="2" cy="2" r="2" transform="translate(157 2373)" fill="#ff9c00"/>
      <circle id="Ellipse_14-7" data-name="Ellipse 14" cx="2" cy="2" r="2" transform="translate(167 2373)" fill="#ff9c00"/>
    </g>
    <g id="Group_30" data-name="Group 30" transform="translate(0 70)">
      <circle id="Ellipse_5-8" data-name="Ellipse 5" cx="2" cy="2" r="2" transform="translate(77 2373)" fill="#ff9c00"/>
      <circle id="Ellipse_6-8" data-name="Ellipse 6" cx="2" cy="2" r="2" transform="translate(137 2373)" fill="#ff9c00"/>
      <circle id="Ellipse_7-8" data-name="Ellipse 7" cx="2" cy="2" r="2" transform="translate(127 2373)" fill="#ff9c00"/>
      <circle id="Ellipse_8-8" data-name="Ellipse 8" cx="2" cy="2" r="2" transform="translate(117 2373)" fill="#ff9c00"/>
      <circle id="Ellipse_9-8" data-name="Ellipse 9" cx="2" cy="2" r="2" transform="translate(107 2373)" fill="#ff9c00"/>
      <circle id="Ellipse_10-8" data-name="Ellipse 10" cx="2" cy="2" r="2" transform="translate(97 2373)" fill="#ff9c00"/>
      <circle id="Ellipse_11-8" data-name="Ellipse 11" cx="2" cy="2" r="2" transform="translate(87 2373)" fill="#ff9c00"/>
      <circle id="Ellipse_12-8" data-name="Ellipse 12" cx="2" cy="2" r="2" transform="translate(147 2373)" fill="#ff9c00"/>
      <circle id="Ellipse_13-8" data-name="Ellipse 13" cx="2" cy="2" r="2" transform="translate(157 2373)" fill="#ff9c00"/>
      <circle id="Ellipse_14-8" data-name="Ellipse 14" cx="2" cy="2" r="2" transform="translate(167 2373)" fill="#ff9c00"/>
    </g>
    <g id="Group_31" data-name="Group 31" transform="translate(0 80)">
      <circle id="Ellipse_5-9" data-name="Ellipse 5" cx="2" cy="2" r="2" transform="translate(77 2373)" fill="#ff9c00"/>
      <circle id="Ellipse_6-9" data-name="Ellipse 6" cx="2" cy="2" r="2" transform="translate(137 2373)" fill="#ff9c00"/>
      <circle id="Ellipse_7-9" data-name="Ellipse 7" cx="2" cy="2" r="2" transform="translate(127 2373)" fill="#ff9c00"/>
      <circle id="Ellipse_8-9" data-name="Ellipse 8" cx="2" cy="2" r="2" transform="translate(117 2373)" fill="#ff9c00"/>
      <circle id="Ellipse_9-9" data-name="Ellipse 9" cx="2" cy="2" r="2" transform="translate(107 2373)" fill="#ff9c00"/>
      <circle id="Ellipse_10-9" data-name="Ellipse 10" cx="2" cy="2" r="2" transform="translate(97 2373)" fill="#ff9c00"/>
      <circle id="Ellipse_11-9" data-name="Ellipse 11" cx="2" cy="2" r="2" transform="translate(87 2373)" fill="#ff9c00"/>
      <circle id="Ellipse_12-9" data-name="Ellipse 12" cx="2" cy="2" r="2" transform="translate(147 2373)" fill="#ff9c00"/>
      <circle id="Ellipse_13-9" data-name="Ellipse 13" cx="2" cy="2" r="2" transform="translate(157 2373)" fill="#ff9c00"/>
      <circle id="Ellipse_14-9" data-name="Ellipse 14" cx="2" cy="2" r="2" transform="translate(167 2373)" fill="#ff9c00"/>
    </g>
    <g id="Group_32" data-name="Group 32" transform="translate(0 90)">
      <circle id="Ellipse_5-10" data-name="Ellipse 5" cx="2" cy="2" r="2" transform="translate(77 2373)" fill="#ff9c00"/>
      <circle id="Ellipse_6-10" data-name="Ellipse 6" cx="2" cy="2" r="2" transform="translate(137 2373)" fill="#ff9c00"/>
      <circle id="Ellipse_7-10" data-name="Ellipse 7" cx="2" cy="2" r="2" transform="translate(127 2373)" fill="#ff9c00"/>
      <circle id="Ellipse_8-10" data-name="Ellipse 8" cx="2" cy="2" r="2" transform="translate(117 2373)" fill="#ff9c00"/>
      <circle id="Ellipse_9-10" data-name="Ellipse 9" cx="2" cy="2" r="2" transform="translate(107 2373)" fill="#ff9c00"/>
      <circle id="Ellipse_10-10" data-name="Ellipse 10" cx="2" cy="2" r="2" transform="translate(97 2373)" fill="#ff9c00"/>
      <circle id="Ellipse_11-10" data-name="Ellipse 11" cx="2" cy="2" r="2" transform="translate(87 2373)" fill="#ff9c00"/>
      <circle id="Ellipse_12-10" data-name="Ellipse 12" cx="2" cy="2" r="2" transform="translate(147 2373)" fill="#ff9c00"/>
      <circle id="Ellipse_13-10" data-name="Ellipse 13" cx="2" cy="2" r="2" transform="translate(157 2373)" fill="#ff9c00"/>
      <circle id="Ellipse_14-10" data-name="Ellipse 14" cx="2" cy="2" r="2" transform="translate(167 2373)" fill="#ff9c00"/>
    </g>
  </g>
</svg>
