<svg xmlns="http://www.w3.org/2000/svg" width="35.114" height="35.1" viewBox="0 0 35.114 35.1">
  <path id="graphic-design_1_" data-name="graphic-design (1)" d="M14.754,10.326a5.7,5.7,0,0,0-4,1.85,7.087,7.087,0,0,0-1.684,5.183A7.277,7.277,0,0,1,7.84,21.912L6.323,24.067H8.959q.312,0,.611-.008H28.175V21.324H17.828a14.106,14.106,0,0,0,1.366-1.313,5.774,5.774,0,0,0,1.493-4.5l7.852-10.99A2.738,2.738,0,0,0,24.468.863L15.2,10.328C15.055,10.322,14.905,10.32,14.754,10.326Zm2.428,7.832a8.987,8.987,0,0,1-5.916,3.029,11.883,11.883,0,0,0,.54-3.759c.037-1.458.061-2.421.962-3.4a2.993,2.993,0,0,1,4.249-.166A3.056,3.056,0,0,1,17.182,18.158ZM26.434,2.765l.018-.01-.046.049-6.93,9.7a5.763,5.763,0,0,0-1.358-1.242Zm8.58,6.249V25.427a4.108,4.108,0,0,1-4.1,4.1H18.875v2.735h7.112V35H9.027V32.266h7.112V29.53H4.1a4.108,4.108,0,0,1-4.1-4.1V9.014a4.108,4.108,0,0,1,4.1-4.1H16.679L14,7.646H4.1A1.369,1.369,0,0,0,2.735,9.014V25.427A1.369,1.369,0,0,0,4.1,26.795H30.911a1.369,1.369,0,0,0,1.368-1.368V9.014a1.369,1.369,0,0,0-1.368-1.368h-1.24L30.7,6.2a5.467,5.467,0,0,0,.769-1.249A4.109,4.109,0,0,1,35.014,9.014Zm0,0" transform="translate(0.05 0.049)" fill="#ff9c00" stroke="#ff9c00" stroke-width="0.1"/>
</svg>
