<svg xmlns="http://www.w3.org/2000/svg" width="33.918" height="33.918" viewBox="0 0 33.918 33.918">
  <g id="Group_51" data-name="Group 51" transform="translate(0.5 0.5)">
    <g id="Group_50" data-name="Group 50">
      <path id="Path_17" data-name="Path 17" d="M30.025,0H2.893A2.9,2.9,0,0,0,0,2.893V30.025a2.9,2.9,0,0,0,2.893,2.893H30.025a2.9,2.9,0,0,0,2.893-2.893V2.893A2.9,2.9,0,0,0,30.025,0ZM1.929,2.893a.965.965,0,0,1,.964-.964H7.779V7.715H1.929Zm29.06,27.132a.965.965,0,0,1-.964.964H2.893a.965.965,0,0,1-.964-.964V9.644h29.06Zm0-22.31H9.708V1.929H30.025a.965.965,0,0,1,.964.964Z" fill="#ff9c00" stroke="#ff9c00" stroke-width="1"/>
    </g>
  </g>
</svg>
