<svg xmlns="http://www.w3.org/2000/svg" width="38.878" height="38.878" viewBox="0 0 38.878 38.878">
  <g id="vector" transform="translate(0.15 0.15)">
    <g id="Group_3" data-name="Group 3">
      <g id="Group_2" data-name="Group 2">
        <path id="Path_8" data-name="Path 8" d="M37.448,0H32.927A1.13,1.13,0,0,0,31.8,1.13V2.26H22.485a3.39,3.39,0,0,0-6.393,0H6.781V1.13A1.13,1.13,0,0,0,5.651,0H1.13A1.13,1.13,0,0,0,0,1.13V5.651a1.13,1.13,0,0,0,1.13,1.13H5.651a1.13,1.13,0,0,0,1.13-1.13V4.506h4.7A14.849,14.849,0,0,0,4.627,16.082a3.389,3.389,0,1,0,2.265.022A12.62,12.62,0,0,1,16.252,4.9a3.389,3.389,0,0,0,6.074,0A12.62,12.62,0,0,1,31.686,16.1a3.392,3.392,0,1,0,2.265-.023A14.822,14.822,0,0,0,27.1,4.521h4.7v1.13a1.13,1.13,0,0,0,1.13,1.13h4.521a1.13,1.13,0,0,0,1.13-1.13V1.13A1.13,1.13,0,0,0,37.448,0ZM4.521,4.521H2.26V2.26h2.26Zm1.206,15.9a1.13,1.13,0,1,1,1.13-1.13A1.132,1.132,0,0,1,5.726,20.419Zm13.563-15.9a1.13,1.13,0,1,1,1.13-1.13A1.132,1.132,0,0,1,19.289,4.521ZM32.852,18.159a1.13,1.13,0,1,1-1.13,1.13A1.132,1.132,0,0,1,32.852,18.159ZM36.318,4.521h-2.26V2.26h2.26Z" fill="#ff9c00" stroke="#ff9c00" stroke-width="0.3"/>
      </g>
    </g>
    <g id="Group_5" data-name="Group 5" transform="translate(9.117 9.118)">
      <g id="Group_4" data-name="Group 4">
        <path id="Path_9" data-name="Path 9" d="M141.154,135.075l-9.042-13.563h0l-.01-.014c-.016-.023-.032-.044-.049-.065a1.13,1.13,0,0,0-1.81.065l-.01.014h0l-9.042,13.563a1.13,1.13,0,0,0,.141,1.426,14.319,14.319,0,0,1,4.081,8.356,5.827,5.827,0,0,0-.506.458,5.729,5.729,0,0,0-1.646,4.024,1.13,1.13,0,0,0,1.13,1.13h13.563a1.13,1.13,0,0,0,1.13-1.13,5.729,5.729,0,0,0-1.646-4.024,5.827,5.827,0,0,0-.506-.458,14.317,14.317,0,0,1,4.081-8.356A1.13,1.13,0,0,0,141.154,135.075Zm-9.982-.5a1.13,1.13,0,1,1-1.13,1.13A1.132,1.132,0,0,1,131.172,134.572Zm-5.458,13.638a3.452,3.452,0,0,1,3.2-2.336h4.521a3.452,3.452,0,0,1,3.2,2.336Zm9.094-4.424a5.552,5.552,0,0,0-1.375-.172h-4.521a5.549,5.549,0,0,0-1.375.172,16.585,16.585,0,0,0-3.967-8.205l6.472-9.708v6.634a3.391,3.391,0,1,0,2.26,0v-6.634l6.472,9.708A16.582,16.582,0,0,0,134.807,143.786Z" transform="translate(-121 -121.01)" fill="#ff9c00" stroke="#ff9c00" stroke-width="0.3"/>
      </g>
    </g>
  </g>
</svg>
