<svg xmlns="http://www.w3.org/2000/svg" width="175.5" height="46" viewBox="0 0 175.5 46">
  <g id="Logo" transform="translate(-389.5 -49.5)">
    <g id="rotation_1_" data-name="rotation (1)" transform="translate(390 50)">
      <path id="Path_2" data-name="Path 2" d="M17.473,45C9.665,45,5,33.559,5,22.5,5,15.159,8.05,0,17.473,0c4.407,0,8.361,3.943,10.577,10.547a.927.927,0,0,1-.692,1.17,1.066,1.066,0,0,1-1.3-.624c-1.908-5.687-5.2-9.217-8.587-9.217C10.382,1.875,7.079,14.183,7.079,22.5c0,11.179,4.76,20.625,10.394,20.625,3.266,0,6.488-3.336,8.407-8.708a1.035,1.035,0,0,1,.989-.651,1,1,0,0,1,1.05.938.885.885,0,0,1-.108.422C25.563,41.312,21.707,45,17.473,45Z" transform="translate(3.497)" fill="#ff9c00" stroke="#ff9c00" stroke-width="1"/>
      <path id="Path_3" data-name="Path 3" d="M18.2,10.237a1.045,1.045,0,0,1-.736-.3L13.3,5.775a1.039,1.039,0,1,1,1.47-1.47l3.309,3.309,2.4-3.2a1.039,1.039,0,0,1,1.663,1.247L19.029,9.821a1.045,1.045,0,0,1-.757.414C18.245,10.237,18.222,10.237,18.2,10.237Z" transform="translate(10.763 3.383)" fill="#ff9c00" stroke="#ff9c00" stroke-width="1"/>
      <path id="Path_4" data-name="Path 4" d="M22.5,31.3C11.441,31.3,0,26.635,0,18.827c0-4.249,3.741-8.132,10.005-10.386a.923.923,0,0,1,1.181.667,1.069,1.069,0,0,1-.6,1.31c-5.454,1.962-8.709,5.105-8.709,8.409,0,6.218,10.665,10.394,20.625,10.394,8.318,0,20.625-3.3,20.625-10.394,0-3.44-3.651-6.779-9.529-8.71a1.061,1.061,0,0,1-.632-1.293.927.927,0,0,1,1.166-.7C40.937,10.36,45,14.362,45,18.827,45,28.25,29.841,31.3,22.5,31.3Z" transform="translate(0 5.637)" fill="#ff9c00" stroke="#ff9c00" stroke-width="1"/>
      <path id="Path_5" data-name="Path 5" d="M22.2,16.1a1.044,1.044,0,0,1-.736-.3L17.3,11.643a1.038,1.038,0,0,1,.112-1.565l4.158-3.118a1.039,1.039,0,1,1,1.247,1.663l-3.2,2.4,3.309,3.309A1.038,1.038,0,0,1,22.2,16.1Z" transform="translate(14.38 5.589)" fill="#ff9c00" stroke="#ff9c00" stroke-width="1"/>
      <path id="Path_6" data-name="Path 6" d="M16.315,24.63a8.315,8.315,0,1,1,8.315-8.315A8.323,8.323,0,0,1,16.315,24.63Zm0-14.551a6.236,6.236,0,1,0,6.236,6.236A6.244,6.244,0,0,0,16.315,10.079Z" transform="translate(6.185 6.185)" fill="#ff9c00" stroke="#ff9c00" stroke-width="1"/>
      <path id="Path_7" data-name="Path 7" d="M13.079,15.158a2.079,2.079,0,1,1,2.079-2.079A2.082,2.082,0,0,1,13.079,15.158Z" transform="translate(9.421 9.421)" fill="#ff9c00" stroke="#ff9c00" stroke-width="1"/>
    </g>
    <text id="uixzone" transform="translate(447 86)" fill="#fff" font-size="32" font-family="SegoeUI-Bold, Segoe UI" font-weight="700"><tspan x="0" y="0">uixzone</tspan></text>
  </g>
</svg>
