<svg xmlns="http://www.w3.org/2000/svg" xmlns:xlink="http://www.w3.org/1999/xlink" width="55" height="55" viewBox="0 0 55 55">
  <defs>
    <clipPath id="clip-path">
      <path id="Path_16" data-name="Path 16" d="M6.321-12.14l.408.42a.974.974,0,0,1,0,1.347L3.7-7.258a.966.966,0,0,0-.27.673.961.961,0,0,0,.27.673L6.729-2.8a.974.974,0,0,1,0,1.347l-.408.42a.908.908,0,0,1-1.309,0L.27-5.91A.966.966,0,0,1,0-6.583a.961.961,0,0,1,.27-.673l4.743-4.882A.91.91,0,0,1,6.321-12.14Z" transform="translate(0 12.417)" fill="#ff9c00"/>
    </clipPath>
    <clipPath id="clip-path-2">
      <path id="Path_15" data-name="Path 15" d="M7,0H0V-13H7Z" transform="translate(0 13)" fill="#ff9c00"/>
    </clipPath>
  </defs>
  <g id="Left" transform="translate(-938 -3611)">
    <g id="Group_19" data-name="Group 19">
      <circle id="Ellipse_3" data-name="Ellipse 3" cx="27.5" cy="27.5" r="27.5" transform="translate(938 3611)" fill="#1b498a"/>
      <circle id="Ellipse_4" data-name="Ellipse 4" cx="24.5" cy="24.5" r="24.5" transform="translate(941 3611)" fill="#fff"/>
    </g>
    <g id="Group_18" data-name="Group 18" transform="translate(1312 3785.25)">
      <g id="Group_20" data-name="Group 20" transform="translate(-351 -153)">
        <g id="Group_13" data-name="Group 13" transform="translate(1 0.75)" clip-path="url(#clip-path)">
          <g id="Group_12" data-name="Group 12" transform="translate(0 -0.583)" clip-path="url(#clip-path-2)">
            <path id="Path_14" data-name="Path 14" d="M-5,4.25H12V-17.417H-5Z" transform="translate(0 13)" fill="#ff9c00"/>
          </g>
        </g>
      </g>
    </g>
  </g>
</svg>
