<svg xmlns="http://www.w3.org/2000/svg" xmlns:xlink="http://www.w3.org/1999/xlink" width="55" height="55" viewBox="0 0 55 55">
  <defs>
    <clipPath id="clip-path">
      <path id="Path_16" data-name="Path 16" d="M.679-12.14l-.408.42a.974.974,0,0,0,0,1.347L3.3-7.258a.966.966,0,0,1,.27.673.961.961,0,0,1-.27.673L.271-2.8a.974.974,0,0,0,0,1.347l.408.42a.908.908,0,0,0,1.309,0L6.73-5.911A.966.966,0,0,0,7-6.583a.961.961,0,0,0-.27-.673L1.987-12.138A.91.91,0,0,0,.679-12.14Z" fill="#ff9c00"/>
    </clipPath>
    <clipPath id="clip-path-2">
      <path id="Path_15" data-name="Path 15" d="M0,0H7V-13H0Z" fill="#ff9c00"/>
    </clipPath>
  </defs>
  <g id="Right" transform="translate(-938 -3611)">
    <g id="Group_19" data-name="Group 19">
      <circle id="Ellipse_3" data-name="Ellipse 3" cx="27.5" cy="27.5" r="27.5" transform="translate(938 3611)" fill="#1b498a"/>
      <circle id="Ellipse_4" data-name="Ellipse 4" cx="24.5" cy="24.5" r="24.5" transform="translate(941 3614)" fill="#fff"/>
    </g>
    <g id="Group_18" data-name="Group 18" transform="translate(1312 3785.417)">
      <g id="Group_21" data-name="Group 21" transform="translate(-350 -140)">
        <g id="Group_13" data-name="Group 13" clip-path="url(#clip-path)">
          <g id="Group_12" data-name="Group 12" clip-path="url(#clip-path-2)">
            <path id="Path_14" data-name="Path 14" d="M12,4.25H-5V-17.417H12Z" fill="#ff9c00"/>
          </g>
        </g>
      </g>
    </g>
  </g>
</svg>
