<svg xmlns="http://www.w3.org/2000/svg" xmlns:xlink="http://www.w3.org/1999/xlink" width="38" height="38" viewBox="0 0 38 38">
  <defs>
    <clipPath id="clip-path">
      <path id="Path_34" data-name="Path 34" d="M21-104.667a5.094,5.094,0,0,1-1.532.448,2.825,2.825,0,0,0,1.172-1.573,5.166,5.166,0,0,1-1.694.691A2.587,2.587,0,0,0,17-106a2.76,2.76,0,0,0-2.668,2.844,3.087,3.087,0,0,0,.068.648,7.421,7.421,0,0,1-5.5-2.973,2.988,2.988,0,0,0-.361,1.431,2.9,2.9,0,0,0,1.185,2.367,2.518,2.518,0,0,1-1.208-.356V-102a2.806,2.806,0,0,0,2.139,2.789,2.509,2.509,0,0,1-.7.1,2.477,2.477,0,0,1-.5-.051,2.7,2.7,0,0,0,2.49,1.976,5.14,5.14,0,0,1-3.311,1.217A4.968,4.968,0,0,1,8-96.011a7.215,7.215,0,0,0,4.088,1.277c4.905,0,7.588-4.334,7.588-8.093,0-.124,0-.246-.007-.368A5.639,5.639,0,0,0,21-104.667Z" fill="none" clip-rule="evenodd"/>
    </clipPath>
    <clipPath id="clip-path-2">
      <path id="Path_33" data-name="Path 33" d="M-1301,228H619V-7045H-1301Z" fill="none"/>
    </clipPath>
  </defs>
  <g id="Twitter" transform="translate(-1377 -2967)">
    <circle id="Ellipse_17" data-name="Ellipse 17" cx="19" cy="19" r="19" transform="translate(1377 2967)" fill="#1da0f1"/>
    <g id="Group_70" data-name="Group 70" transform="translate(1382 3086)" clip-path="url(#clip-path)">
      <g id="Group_69" data-name="Group 69" clip-path="url(#clip-path-2)">
        <path id="Path_32" data-name="Path 32" d="M3-111H26v21.267H3Z" fill="#fff"/>
      </g>
    </g>
  </g>
</svg>
