<svg xmlns="http://www.w3.org/2000/svg" xmlns:xlink="http://www.w3.org/1999/xlink" width="38" height="38" viewBox="0 0 38 38">
  <defs>
    <clipPath id="clip-path">
      <path id="Path_41" data-name="Path 41" d="M22-58.06h-.024c0-.138,0-.275,0-.413s-.014-.271-.024-.406c-.013-.168-.029-.335-.045-.5a4.579,4.579,0,0,0-.052-.5c-.05-.247-.113-.491-.186-.73a1.615,1.615,0,0,0-.312-.592,1.827,1.827,0,0,0-1.238-.633c-.259-.027-.521-.044-.781-.059-.239-.015-.479-.027-.72-.035q-.542-.021-1.084-.037c-.354-.01-.708-.02-1.061-.023C15.777-62,15.083-62,14.388-62s-1.407.024-2.111.038c-.3.006-.594.016-.89.024q-.141,0-.281.013c-.308.018-.616.032-.923.059a4.1,4.1,0,0,0-.616.086,1.652,1.652,0,0,0-1.042.739,2.633,2.633,0,0,0-.336.93c-.049.266-.078.537-.106.808s-.043.548-.059.822c-.014.224-.024.448-.024.672q0,.954.011,1.908c0,.159.013.319.024.476.017.227.036.454.056.679.014.168.024.337.05.5a4.193,4.193,0,0,0,.223.834,1.6,1.6,0,0,0,1.039,1,4.287,4.287,0,0,0,.979.168c.266.025.533.034.8.047.22.01.441.018.662.024q.519.015,1.037.024c.321.006.641.013.962.015.563.006,1.127.016,1.688.011.706-.006,1.411-.024,2.117-.038.29-.006.578-.015.868-.024.1,0,.192-.007.287-.013.318-.018.636-.034.952-.059a4.425,4.425,0,0,0,.6-.072,1.678,1.678,0,0,0,1.285-1.094,4.506,4.506,0,0,0,.267-1.273c.02-.247.043-.493.056-.739.017-.316.032-.633.035-.949C22-56.938,22-57.5,22-58.06Zm-8.446,2.83v-3.956c1.261.661,2.516,1.319,3.781,1.985Z" fill="none"/>
    </clipPath>
    <clipPath id="clip-path-2">
      <path id="Path_40" data-name="Path 40" d="M-1301,228H619V-7045H-1301Z" fill="none"/>
    </clipPath>
  </defs>
  <g id="Youtube" transform="translate(-895 -3055)">
    <circle id="Ellipse_18" data-name="Ellipse 18" cx="19" cy="19" r="19" transform="translate(895 3055)" fill="#c4302b"/>
    <g id="Group_76" data-name="Group 76" transform="translate(899 3131)" clip-path="url(#clip-path)">
      <g id="Group_75" data-name="Group 75" clip-path="url(#clip-path-2)">
        <path id="Path_39" data-name="Path 39" d="M3-67H27v19.882H3Z" fill="#fff"/>
      </g>
    </g>
  </g>
</svg>
